<?xml version="1.0" standalone="no"?>
<!DOCTYPE svg PUBLIC "-//W3C//DTD SVG 1.1//EN"
 "http://www.w3.org/Graphics/SVG/1.1/DTD/svg11.dtd">
<svg width="550px" height="380px" version="1.1"
 xmlns="http://www.w3.org/2000/svg" xmlns:xlink="http://www.w3.org/1999/xlink">
<line x1="101.897654" y1="47.161181" x2="86.794396" y2="48.356765" stroke-width="1.500000" stroke="black" />
<line x1="494.373562" y1="20.463830" x2="474.363999" y2="20.642419" stroke-width="1.500000" stroke="black" />
<line x1="540.903573" y1="6.874987" x2="540.898713" y2="371.875004" stroke-width="1.500000" stroke="black" />
<line x1="365.980153" y1="28.121802" x2="365.886318" y2="54.375934" stroke-width="1.500000" stroke="black" />
<line x1="399.375296" y1="335.889344" x2="366.874924" y2="335.879592" stroke-width="1.500000" stroke="black" />
<line x1="422.969382" y1="369.375003" x2="422.963259" y2="8.125003" stroke-width="1.500000" stroke="black" />
<line x1="365.859042" y1="336.874056" x2="365.934684" y2="355.628793" stroke-width="1.500000" stroke="black" />
<line x1="539.375031" y1="373.242736" x2="6.874974" y2="373.254887" stroke-width="1.500000" stroke="black" />
<line x1="366.874634" y1="56.064195" x2="399.374611" y2="56.091314" stroke-width="1.500000" stroke="black" />
<line x1="421.875000" y1="7.042280" x2="8.125000" y2="7.042302" stroke-width="1.500000" stroke="black" />
<line x1="536.875094" y1="7.046381" x2="426.874986" y2="7.036815" stroke-width="1.500000" stroke="black" />
<line x1="491.871320" y1="362.168417" x2="510.634047" y2="362.403760" stroke-width="1.500000" stroke="black" />
<line x1="55.302418" y1="359.375334" x2="55.281720" y2="339.374062" stroke-width="1.500000" stroke="black" />
<line x1="55.222672" y1="43.141835" x2="55.496140" y2="29.372441" stroke-width="1.500000" stroke="black" />
<line x1="7.172613" y1="8.124996" x2="7.177285" y2="369.375012" stroke-width="1.500000" stroke="black" />
<line x1="5.109599" y1="370.625001" x2="5.110044" y2="6.874999" stroke-width="1.500000" stroke="black" />
<line x1="145.625752" y1="357.844303" x2="64.375158" y2="357.804385" stroke-width="1.500000" stroke="black" />
<line x1="443.125000" y1="341.875000" x2="536.875000" y2="341.875000" stroke-width="1.500000" stroke="black" />
<line x1="389.509138" y1="284.383452" x2="389.577924" y2="273.118606" stroke-width="1.500000" stroke="black" />
<line x1="29.343090" y1="90.649683" x2="29.521353" y2="81.852636" stroke-width="1.500000" stroke="black" />
<line x1="389.728623" y1="100.659949" x2="389.286870" y2="89.329700" stroke-width="1.500000" stroke="black" />
<line x1="6.874999" y1="4.732987" x2="539.375003" y2="4.735057" stroke-width="1.500000" stroke="black" />
<line x1="539.375066" y1="329.790327" x2="426.874871" y2="329.808153" stroke-width="1.500000" stroke="black" />
<line x1="426.874881" y1="356.482827" x2="539.374870" y2="356.448637" stroke-width="1.500000" stroke="black" />
<line x1="426.875020" y1="370.792077" x2="538.125019" y2="370.778532" stroke-width="1.500000" stroke="black" />
<line x1="119.043016" y1="218.198685" x2="122.656462" y2="234.478993" stroke-width="1.500000" stroke="black" />
<line x1="536.874937" y1="344.431590" x2="426.875073" y2="344.309189" stroke-width="1.500000" stroke="black" />
<line x1="56.975799" y1="91.046435" x2="74.660035" y2="86.816719" stroke-width="1.500000" stroke="black" />
<line x1="78.124549" y1="73.281288" x2="56.874726" y2="73.220012" stroke-width="1.500000" stroke="black" />
<line x1="169.375208" y1="73.260177" x2="148.123333" y2="73.292925" stroke-width="1.500000" stroke="black" />
<line x1="426.874999" y1="327.656956" x2="536.875000" y2="327.657064" stroke-width="1.500000" stroke="black" />
<line x1="148.137101" y1="90.701091" x2="161.935700" y2="88.506685" stroke-width="1.500000" stroke="black" />
<line x1="365.906561" y1="134.374987" x2="365.910659" y2="221.875045" stroke-width="1.500000" stroke="black" />
<line x1="8.125000" y1="370.712141" x2="421.875000" y2="370.712255" stroke-width="1.500000" stroke="black" />
<line x1="83.505858" y1="73.290472" x2="77.746420" y2="86.546694" stroke-width="1.500000" stroke="black" />
<line x1="285.624603" y1="147.958407" x2="303.127485" y2="147.916657" stroke-width="1.500000" stroke="black" />
<line x1="425.518622" y1="360.609722" x2="425.419758" y2="369.386768" stroke-width="1.500000" stroke="black" />
<line x1="425.482334" y1="8.124969" x2="425.491341" y2="325.625039" stroke-width="1.500000" stroke="black" />
<line x1="282.862248" y1="133.125186" x2="282.876153" y2="59.374953" stroke-width="1.500000" stroke="black" />
<line x1="369.374548" y1="132.975154" x2="393.125058" y2="132.984905" stroke-width="1.500000" stroke="black" />
<line x1="282.871174" y1="216.875305" x2="282.885339" y2="170.624927" stroke-width="1.500000" stroke="black" />
<line x1="282.884009" y1="51.878712" x2="282.948406" y2="34.374350" stroke-width="1.500000" stroke="black" />
<line x1="151.875118" y1="335.892627" x2="56.874969" y2="335.881255" stroke-width="1.500000" stroke="black" />
<line x1="285.625093" y1="132.950116" x2="364.375734" y2="132.991931" stroke-width="1.500000" stroke="black" />
<line x1="76.912160" y1="86.956164" x2="64.212680" y2="92.770463" stroke-width="1.500000" stroke="black" />
<line x1="136.819474" y1="239.374427" x2="137.038859" y2="218.113792" stroke-width="1.500000" stroke="black" />
<line x1="360.828762" y1="139.374926" x2="360.856991" y2="216.875371" stroke-width="1.500000" stroke="black" />
<line x1="170.820420" y1="84.754706" x2="153.933434" y2="93.445804" stroke-width="1.500000" stroke="black" />
<line x1="224.362024" y1="269.745534" x2="236.881239" y2="269.845776" stroke-width="1.500000" stroke="black" />
<line x1="397.150621" y1="231.874997" x2="397.150375" y2="325.625001" stroke-width="1.500000" stroke="black" />
<line x1="361.875007" y1="335.898643" x2="156.874974" y2="335.904157" stroke-width="1.500000" stroke="black" />
<line x1="397.150394" y1="143.124997" x2="397.151230" y2="214.375011" stroke-width="1.500000" stroke="black" />
<line x1="397.150221" y1="65.624998" x2="397.150700" y2="125.625008" stroke-width="1.500000" stroke="black" />
<line x1="279.777442" y1="170.624747" x2="279.806499" y2="216.875514" stroke-width="1.500000" stroke="black" />
<line x1="365.902021" y1="59.374983" x2="365.906442" y2="129.374982" stroke-width="1.500000" stroke="black" />
<line x1="365.915871" y1="228.124859" x2="365.900638" y2="331.875040" stroke-width="1.500000" stroke="black" />
<line x1="37.009783" y1="80.624570" x2="37.053664" y2="94.378418" stroke-width="1.500000" stroke="black" />
<line x1="61.874996" y1="221.665701" x2="116.874996" y2="221.664602" stroke-width="1.500000" stroke="black" />
<line x1="153.124999" y1="221.659641" x2="363.124999" y2="221.658901" stroke-width="1.500000" stroke="black" />
<line x1="151.720414" y1="216.875002" x2="151.718868" y2="94.374986" stroke-width="1.500000" stroke="black" />
<line x1="279.801393" y1="63.124865" x2="279.787671" y2="146.875068" stroke-width="1.500000" stroke="black" />
<line x1="55.313383" y1="70.626094" x2="55.327952" y2="58.124654" stroke-width="1.500000" stroke="black" />
<line x1="80.625799" y1="58.263777" x2="59.369310" y2="58.386086" stroke-width="1.500000" stroke="black" />
<line x1="136.984449" y1="244.113971" x2="124.124725" y2="238.721888" stroke-width="1.500000" stroke="black" />
<line x1="356.875000" y1="33.125000" x2="293.125000" y2="33.125000" stroke-width="1.500000" stroke="black" />
<line x1="146.875011" y1="330.789957" x2="61.875012" y2="330.795715" stroke-width="1.500000" stroke="black" />
<line x1="151.720541" y1="331.875190" x2="151.739374" y2="223.124977" stroke-width="1.500000" stroke="black" />
<line x1="121.873564" y1="47.712083" x2="103.123791" y2="47.777303" stroke-width="1.500000" stroke="black" />
<line x1="64.374815" y1="216.481117" x2="118.125082" y2="216.492711" stroke-width="1.500000" stroke="black" />
<line x1="369.372982" y1="221.670235" x2="393.125307" y2="221.716093" stroke-width="1.500000" stroke="black" />
<line x1="277.669102" y1="215.625176" x2="277.651263" y2="169.374701" stroke-width="1.500000" stroke="black" />
<line x1="296.469463" y1="162.906683" x2="302.288439" y2="152.097571" stroke-width="1.500000" stroke="black" />
<line x1="281.874999" y1="58.341914" x2="83.124999" y2="58.341362" stroke-width="1.500000" stroke="black" />
<line x1="146.522460" y1="215.625025" x2="146.513835" y2="91.874938" stroke-width="1.500000" stroke="black" />
<line x1="538.803711" y1="325.625000" x2="538.803437" y2="8.124999" stroke-width="1.500000" stroke="black" />
<line x1="538.741996" y1="340.637265" x2="538.941195" y2="330.616377" stroke-width="1.500000" stroke="black" />
<line x1="538.806257" y1="354.375426" x2="538.799702" y2="345.624495" stroke-width="1.500000" stroke="black" />
<line x1="538.799585" y1="369.375604" x2="538.807417" y2="360.624492" stroke-width="1.500000" stroke="black" />
<line x1="275.625000" y1="33.125000" x2="65.625000" y2="33.125000" stroke-width="1.500000" stroke="black" />
<line x1="268.124905" y1="355.366058" x2="356.875352" y2="355.333483" stroke-width="1.500000" stroke="black" />
<line x1="361.875043" y1="58.365206" x2="288.124824" y2="58.378264" stroke-width="1.500000" stroke="black" />
<line x1="393.124991" y1="58.352044" x2="366.874991" y2="58.350973" stroke-width="1.500000" stroke="black" />
<line x1="277.644134" y1="148.125149" x2="277.660339" y2="64.374910" stroke-width="1.500000" stroke="black" />
<line x1="55.273498" y1="334.375062" x2="55.290142" y2="91.874977" stroke-width="1.500000" stroke="black" />
<line x1="300.627901" y1="150.072230" x2="279.371927" y2="149.960694" stroke-width="1.500000" stroke="black" />
<line x1="60.434638" y1="329.375005" x2="60.431817" y2="223.125005" stroke-width="1.500000" stroke="black" />
<line x1="113.124610" y1="355.377614" x2="144.376502" y2="355.328369" stroke-width="1.500000" stroke="black" />
<line x1="151.687740" y1="353.125108" x2="151.679796" y2="339.374391" stroke-width="1.500000" stroke="black" />
<line x1="536.875257" y1="358.690425" x2="426.874803" y2="358.649132" stroke-width="1.500000" stroke="black" />
<line x1="284.903930" y1="58.124903" x2="284.917426" y2="131.875129" stroke-width="1.500000" stroke="black" />
<line x1="299.210606" y1="164.014979" x2="285.943702" y2="170.072955" stroke-width="1.500000" stroke="black" />
<line x1="60.430232" y1="216.875004" x2="60.427875" y2="94.374980" stroke-width="1.500000" stroke="black" />
<line x1="284.374037" y1="138.169834" x2="359.374988" y2="138.109933" stroke-width="1.500000" stroke="black" />
<line x1="146.513329" y1="326.875020" x2="146.515565" y2="225.624992" stroke-width="1.500000" stroke="black" />
<line x1="62.924539" y1="93.125000" x2="62.924669" y2="215.625000" stroke-width="1.500000" stroke="black" />
<line x1="65.623636" y1="355.330303" x2="96.875357" y2="355.374909" stroke-width="1.500000" stroke="black" />
<line x1="278.125093" y1="218.737910" x2="154.374906" y2="218.756770" stroke-width="1.500000" stroke="black" />
<line x1="359.375021" y1="218.745180" x2="284.374979" y2="218.747732" stroke-width="1.500000" stroke="black" />
<line x1="161.874035" y1="355.314046" x2="256.875219" y2="355.411667" stroke-width="1.500000" stroke="black" />
<line x1="38.124830" y1="70.795922" x2="51.874817" y2="70.809578" stroke-width="1.500000" stroke="black" />
<line x1="64.374984" y1="45.345487" x2="78.125056" y2="45.344693" stroke-width="1.500000" stroke="black" />
<line x1="356.875136" y1="140.799470" x2="286.874206" y2="140.853901" stroke-width="1.500000" stroke="black" />
<line x1="356.875014" y1="357.821795" x2="161.874957" y2="357.812783" stroke-width="1.500000" stroke="black" />
<line x1="62.907689" y1="225.623954" x2="63.010239" y2="326.875116" stroke-width="1.500000" stroke="black" />
<line x1="155.624989" y1="216.480340" x2="275.625005" y2="216.481863" stroke-width="1.500000" stroke="black" />
<line x1="180.624978" y1="30.456232" x2="275.625137" y2="30.444072" stroke-width="1.500000" stroke="black" />
<line x1="153.124887" y1="61.233427" x2="278.125115" y2="61.256727" stroke-width="1.500000" stroke="black" />
<line x1="51.875065" y1="63.519232" x2="39.374859" y2="63.521294" stroke-width="1.500000" stroke="black" />
<line x1="78.125072" y1="63.514053" x2="64.374842" y2="63.516585" stroke-width="1.500000" stroke="black" />
<line x1="145.625185" y1="63.494432" x2="83.124575" y2="63.525735" stroke-width="1.500000" stroke="black" />
<line x1="275.625001" y1="63.514919" x2="155.625000" y2="63.514778" stroke-width="1.500000" stroke="black" />
<line x1="286.874998" y1="216.485228" x2="356.875005" y2="216.484841" stroke-width="1.500000" stroke="black" />
<line x1="65.624391" y1="30.429646" x2="168.125079" y2="30.488804" stroke-width="1.500000" stroke="black" />
<line x1="83.124802" y1="61.237849" x2="146.875199" y2="61.258477" stroke-width="1.500000" stroke="black" />
<line x1="293.120185" y1="30.413624" x2="319.375416" y2="30.535341" stroke-width="1.500000" stroke="black" />
<line x1="333.124709" y1="30.479084" x2="355.627113" y2="30.434204" stroke-width="1.500000" stroke="black" />
<line x1="64.374869" y1="328.371125" x2="145.625031" y2="328.360528" stroke-width="1.500000" stroke="black" />
<line x1="78.125752" y1="47.815054" x2="64.374761" y2="47.826060" stroke-width="1.500000" stroke="black" />
<line x1="148.791881" y1="94.374934" x2="148.777960" y2="216.875074" stroke-width="1.500000" stroke="black" />
<line x1="56.871021" y1="56.173074" x2="78.127424" y2="56.052591" stroke-width="1.500000" stroke="black" />
<line x1="64.372184" y1="70.835521" x2="80.635994" y2="71.053061" stroke-width="1.500000" stroke="black" />
<line x1="363.904027" y1="220.625236" x2="363.862136" y2="136.874631" stroke-width="1.500000" stroke="black" />
<line x1="63.123408" y1="61.272536" x2="78.126606" y2="61.232890" stroke-width="1.500000" stroke="black" />
<line x1="155.624944" y1="70.902049" x2="171.874943" y2="70.905336" stroke-width="1.500000" stroke="black" />
<line x1="364.375050" y1="223.902240" x2="155.624970" y2="223.915660" stroke-width="1.500000" stroke="black" />
<line x1="116.875268" y1="218.734364" x2="63.124728" y2="218.758042" stroke-width="1.500000" stroke="black" />
<line x1="363.856668" y1="129.375520" x2="363.906381" y2="59.374667" stroke-width="1.500000" stroke="black" />
<line x1="284.920149" y1="170.624393" x2="284.881412" y2="215.625436" stroke-width="1.500000" stroke="black" />
<line x1="363.848509" y1="54.378505" x2="363.945420" y2="34.372919" stroke-width="1.500000" stroke="black" />
<line x1="363.879447" y1="331.875001" x2="363.879288" y2="228.124999" stroke-width="1.500000" stroke="black" />
<line x1="363.843552" y1="353.130337" x2="363.964305" y2="336.871950" stroke-width="1.500000" stroke="black" />
<line x1="154.022622" y1="225.624889" x2="153.988386" y2="334.375272" stroke-width="1.500000" stroke="black" />
<line x1="361.875155" y1="135.232366" x2="284.374674" y2="135.201797" stroke-width="1.500000" stroke="black" />
<line x1="116.875101" y1="223.906573" x2="64.374940" y2="223.913387" stroke-width="1.500000" stroke="black" />
<line x1="284.816521" y1="34.372157" x2="284.929236" y2="51.879479" stroke-width="1.500000" stroke="black" />
<line x1="154.012216" y1="94.375000" x2="154.012110" y2="214.375001" stroke-width="1.500000" stroke="black" />
<line x1="148.786300" y1="224.374989" x2="148.784351" y2="328.125012" stroke-width="1.500000" stroke="black" />
<line x1="83.124979" y1="56.086414" x2="283.125035" y2="56.095385" stroke-width="1.500000" stroke="black" />
<line x1="393.127454" y1="223.942086" x2="369.373914" y2="224.013417" stroke-width="1.500000" stroke="black" />
<line x1="393.132564" y1="135.094846" x2="369.372053" y2="135.344521" stroke-width="1.500000" stroke="black" />
<line x1="57.627062" y1="94.374987" x2="57.620818" y2="331.875020" stroke-width="1.500000" stroke="black" />
<line x1="288.124873" y1="56.076501" x2="361.875219" y2="56.097305" stroke-width="1.500000" stroke="black" />
<line x1="154.045091" y1="339.372217" x2="153.929035" y2="353.131782" stroke-width="1.500000" stroke="black" />
<line x1="395.014580" y1="214.379711" x2="395.244832" y2="183.122200" stroke-width="1.500000" stroke="black" />
<line x1="57.635164" y1="59.374368" x2="57.622254" y2="69.375965" stroke-width="1.500000" stroke="black" />
<line x1="395.007101" y1="125.631318" x2="395.269583" y2="99.371447" stroke-width="1.500000" stroke="black" />
<line x1="395.133043" y1="170.626338" x2="395.058238" y2="143.123142" stroke-width="1.500000" stroke="black" />
<line x1="57.446785" y1="34.360166" x2="57.674473" y2="43.136688" stroke-width="1.500000" stroke="black" />
<line x1="358.621720" y1="214.375082" x2="358.633716" y2="141.874877" stroke-width="1.500000" stroke="black" />
<line x1="268.229040" y1="272.855171" x2="260.550193" y2="273.670238" stroke-width="1.500000" stroke="black" />
<line x1="395.150219" y1="86.877260" x2="395.049051" y2="65.621792" stroke-width="1.500000" stroke="black" />
<line x1="395.141146" y1="270.626495" x2="395.017517" y2="230.623014" stroke-width="1.500000" stroke="black" />
<line x1="395.065358" y1="325.625881" x2="395.114804" y2="286.874349" stroke-width="1.500000" stroke="black" />
<line x1="57.699695" y1="339.370770" x2="57.562816" y2="353.131842" stroke-width="1.500000" stroke="black" />
<line x1="158.125000" y1="333.787919" x2="361.875000" y2="333.787836" stroke-width="1.500000" stroke="black" />
<line x1="368.124971" y1="333.788248" x2="393.125033" y2="333.786997" stroke-width="1.500000" stroke="black" />
<line x1="59.374975" y1="333.712058" x2="150.625022" y2="333.708673" stroke-width="1.500000" stroke="black" />
<line x1="39.367895" y1="61.294887" x2="51.881327" y2="61.141634" stroke-width="1.500000" stroke="black" />
</svg>
